<?xml version="1.0" encoding="utf-8"?>
<!-- Generator: Adobe Illustrator 24.0.2, SVG Export Plug-In . SVG Version: 6.00 Build 0)  -->
<svg version="1.1" id="Camada_2_1_" xmlns="http://www.w3.org/2000/svg" xmlns:xlink="http://www.w3.org/1999/xlink" x="0px"
	 y="0px" viewBox="0 0 400 400" style="enable-background:new 0 0 400 400;" xml:space="preserve">
<style type="text/css">
	.st0{fill:#F7F7F7;stroke:#F7F7F7;stroke-width:0.75;stroke-miterlimit:10;}
	.st1{fill:#FFFFFF;}
	.st2{fill:#003B62;stroke:#003B62;stroke-width:6;stroke-miterlimit:10;}
	.st3{fill:#003B62;}
	.st4{fill:#99D6FF;stroke:#99D6FF;stroke-width:3;stroke-miterlimit:10;}
	.st5{fill:none;stroke:#003B62;stroke-width:4;stroke-miterlimit:10;}
	.st6{fill-rule:evenodd;clip-rule:evenodd;fill:#003B62;}
	.st7{fill:#014170;}
</style>
<ellipse class="st0" cx="200.5" cy="200.2" rx="169.3" ry="174.4"/>
<g>
	<g>
		<ellipse class="st1" cx="200.5" cy="200.4" rx="186" ry="188.3"/>
	</g>
	<g>
		<path class="st2" d="M200.5,393.2C95.5,393.2,10,306.7,10,200.4S95.5,7.6,200.5,7.6S391,94.1,391,200.4S305.5,393.2,200.5,393.2z
			 M200.5,16.6C100.4,16.6,18.9,99,18.9,200.4c0,101.4,81.5,183.8,181.6,183.8s181.6-82.5,181.6-183.8
			C382.1,99,300.6,16.6,200.5,16.6z"/>
	</g>
</g>
<ellipse class="st0" cx="200.5" cy="203.9" rx="169.3" ry="174.4"/>
<g>
	<g>
		<g>
			<g>
				<g>
					<path class="st3" d="M364,260.2c1.3-1.8,2.4-3.8,3.3-5.9c-0.8-2.8-0.3-6.4,1.7-8.2c-3.2-2.9-2.7-10.8,1.7-12
						c0.2-2.1,0.4-4.2,0.6-6.3c-0.1-2-0.1-3.9-0.3-5.8c-0.1-1.8,0.2-3.2,0.9-4.2H29.2c0,3.3,0.1,6.6,0.1,9.8
						c0.9,2.7,1.3,5.8,1.3,8.8c1.4,0.5,2.7,1.9,3,4.5c1.1,7.9,3.7,15,6.8,21.9c0.4,1,0.7,1.9,0.7,2.8h321.5
						C362.4,263.9,362.7,261.9,364,260.2z"/>
				</g>
			</g>
		</g>
	</g>
</g>
<g id="ESSE_98_">
	<g>
		<path class="st4" d="M200.5,377.2c-96.4,0-174.9-79.2-174.9-176.6C25.6,103.2,104.1,24,200.5,24c96.4,0,174.9,79.2,174.9,176.6
			C375.4,298,296.9,377.2,200.5,377.2z M200.5,29.6c-93.4,0-169.3,76.7-169.3,171c0,94.3,76,171,169.3,171
			c93.4,0,169.3-76.7,169.3-171C369.8,106.3,293.9,29.6,200.5,29.6z"/>
	</g>
</g>
<g>
	<path class="st1" d="M91.5,235v4.8h8.4v3.4h-8.4v6.6h-4.2v-18.2H101v3.4H91.5z"/>
	<path class="st1" d="M106.9,240.7c0-5.4,4.2-9.4,10-9.4c5.7,0,10,4,10,9.4c0,5.4-4.2,9.4-10,9.4
		C111.1,250.1,106.9,246.1,106.9,240.7z M122.5,240.7c0-3.5-2.4-5.8-5.7-5.8s-5.7,2.4-5.7,5.8s2.4,5.8,5.7,5.8
		S122.5,244.1,122.5,240.7z"/>
	<path class="st1" d="M134.1,241.8v-10.2h4.2v10c0,3.5,1.5,4.9,4.1,4.9c2.6,0,4.1-1.4,4.1-4.9v-10h4.2v10.2c0,5.4-3.1,8.3-8.2,8.3
		C137.2,250.1,134.1,247.1,134.1,241.8z"/>
	<path class="st1" d="M175.8,231.6v18.2h-3.5l-9.1-11.1v11.1h-4.2v-18.2h3.5l9,11.1v-11.1H175.8z"/>
	<path class="st1" d="M184.4,231.6h8.3c6,0,10,3.6,10,9.1c0,5.5-4.1,9.1-10,9.1h-8.3V231.6z M192.5,246.3c3.6,0,6-2.2,6-5.6
		c0-3.5-2.4-5.6-6-5.6h-3.8v11.3H192.5z"/>
	<path class="st1" d="M221.9,245.9h-8.5l-1.6,3.9h-4.3l8.1-18.2h4.2l8.1,18.2h-4.4L221.9,245.9z M220.6,242.7l-2.9-7l-2.9,7H220.6z"
		/>
	<path class="st1" d="M237,235h-5.8v-3.4h15.9v3.4h-5.8v14.8H237V235z"/>
	<path class="st1" d="M253.6,231.6h4.2v18.2h-4.2V231.6z"/>
	<path class="st1" d="M265.3,240.7c0-5.4,4.2-9.4,10-9.4c5.7,0,10,4,10,9.4c0,5.4-4.2,9.4-10,9.4
		C269.5,250.1,265.3,246.1,265.3,240.7z M281,240.7c0-3.5-2.4-5.8-5.7-5.8s-5.7,2.4-5.7,5.8s2.4,5.8,5.7,5.8S281,244.1,281,240.7z"
		/>
	<path class="st1" d="M309.4,231.6v18.2H306l-9.1-11.1v11.1h-4.2v-18.2h3.5l9,11.1v-11.1H309.4z"/>
</g>
<g>
	<path class="st5" d="M137.3,343.5c-32.4-14.1-59.3-40-75.7-71.2c-5.5-10.5-9.9-21.7-12.8-33.3"/>
	<path class="st5" d="M352.2,238.6c-10.2,45-43.2,84-85.3,103.2"/>
</g>
<path class="st6" d="M179.4,63.4c-0.1-1.8,0.1-3.3,4-4.8c5-2,9.9-4.1,14.8-6.2c1.7-0.7,3.2-0.7,4.8,0c5.1,2.2,10.3,4.3,15.4,6.4
	c2.7,1.1,3.3,2.2,3.3,5.1c-0.1,6-1.2,11.7-3.9,17c-3.3,6.6-8,11.9-14.7,15.3c-1.8,0.9-3.4,0.9-5.2,0c-7-3.5-11.7-9.1-14.9-16
	C180.8,75.3,179.6,70.1,179.4,63.4z M200.6,91.2c0.8-0.4,1.4-0.7,1.9-1c3.3-2,6-4.6,8.1-7.8c3.4-5.1,5.3-10.8,5.5-17
	c0.1-1.4,0.1-1.4-1.2-2c-4.3-1.8-8.5-3.6-12.8-5.4c-0.5-0.2-0.9-0.3-1.5-0.6C200.6,68.8,200.6,79.8,200.6,91.2z"/>
<g>
	<g>
		<g>
			<path class="st7" d="M139,293.8h3.3v18.6H139V293.8z"/>
			<path class="st7" d="M145.3,293.8h18.1v3H156v15.6h-3.3v-15.6h-7.4V293.8z"/>
			<path class="st7" d="M183.3,295l-1.2,2.9c-2-1.1-4.1-1.6-6.4-1.6c-2.4,0-4.3,0.6-5.7,1.8c-1.4,1.2-2.1,2.8-2.1,4.8
				c0,2.1,0.8,3.7,2.3,5c1.5,1.3,3.5,1.9,6,1.9c2.6,0,4.9-0.7,7-2v3.4c-2,1.1-4.4,1.6-7.1,1.6c-3.4,0-6.2-0.9-8.3-2.7
				c-2.1-1.8-3.2-4.2-3.2-7.1c0-2.8,1-5.1,3.1-6.9c2.1-1.8,4.8-2.6,8.2-2.6C178.3,293.4,180.8,294,183.3,295z"/>
			<path class="st7" d="M186.2,293.8h15.5v2.9h-12.2v4.9H201l-1.2,2.8h-10.3v5h13v2.9h-16.3V293.8z"/>
			<path class="st7" d="M204.7,293.8h10.9c2.1,0,3.8,0.5,5.1,1.5c1.3,1,1.9,2.4,1.9,4.1c0,1.4-0.4,2.6-1.3,3.6
				c-0.9,0.9-2,1.6-3.6,1.8l5.7,7.5h-4.2l-5.3-7.2h-4.5l1.2-2.9h5.2c1,0,1.8-0.2,2.4-0.7c0.6-0.5,0.9-1.2,0.9-2
				c0-0.9-0.3-1.5-0.9-2.1c-0.6-0.5-1.4-0.8-2.4-0.8h-8v15.7h-3.3V293.8z"/>
			<path class="st7" d="M224.2,293.8h18.1v3h-7.4v15.6h-3.3v-15.6h-7.4V293.8z"/>
			<path class="st7" d="M261.2,295.2l-1.1,2.8c-2.5-1.1-4.9-1.7-7.4-1.7c-3.4,0-5.1,0.8-5.1,2.4c0,1.3,1.1,2,3.3,2.3l5.1,0.6
				c4,0.5,6,2.3,6,5.5c0,3.8-2.8,5.6-8.5,5.6c-3.5,0-6.7-0.7-9.7-2l1.2-3c2.8,1.4,5.7,2,8.6,2c3.3,0,5-0.9,5-2.6
				c0-1.3-1.2-2.1-3.5-2.4l-5.1-0.6c-1.9-0.2-3.3-0.8-4.4-1.7c-1-0.9-1.5-2.1-1.5-3.6c0-1.8,0.7-3.1,2.2-4.1
				c1.5-0.9,3.6-1.4,6.3-1.4C255.6,293.5,258.4,294,261.2,295.2z"/>
		</g>
	</g>
</g>
<g>
	<path class="st3" d="M142.5,343.2c1.5-4.1,5.7-6,10-4.5c2.4,0.8,4.1,2.4,4.8,4.4l-2.7,1.2c-0.5-1.4-1.5-2.3-2.9-2.8
		c-2.6-0.9-5,0.2-6,2.8c-0.9,2.6,0.3,5,2.9,5.9c1.4,0.5,2.7,0.3,4-0.4l1.4,2.6c-1.9,1.1-4.1,1.3-6.5,0.4
		C143.1,351.4,141,347.3,142.5,343.2z"/>
	<path class="st3" d="M169,355.7l-0.6,2.6l-11-2.6l3.3-14.2l10.7,2.5l-0.6,2.6l-7.5-1.7l-0.7,3.1l6.6,1.5l-0.6,2.6l-6.6-1.5
		l-0.8,3.3L169,355.7z"/>
	<path class="st3" d="M182.2,360.3l-2.3-4.4l-0.2,0l-2.9-0.4l-0.5,4l-3.4-0.4l1.7-14.5l6.3,0.8c3.9,0.5,6,2.8,5.7,6
		c-0.3,2.2-1.5,3.6-3.5,4.2l2.7,5L182.2,360.3z M180.5,348.2l-2.7-0.3l-0.6,5l2.7,0.3c2,0.2,3.2-0.6,3.4-2.1
		C183.5,349.5,182.6,348.4,180.5,348.2z"/>
	<path class="st3" d="M193.2,349.1l-4.7-0.1l0-2.7l12.7,0.2l0,2.7l-4.7-0.1l-0.2,11.8l-3.4-0.1L193.2,349.1z"/>
	<path class="st3" d="M203.7,346.3l3.4-0.2l0.8,14.5l-3.4,0.2L203.7,346.3z"/>
	<path class="st3" d="M214.9,348.1l0.5,3.8l6.7-0.9l0.4,2.7l-6.7,0.9l0.7,5.3l-3.3,0.5l-1.9-14.4l10.9-1.5l0.4,2.7L214.9,348.1z"/>
	<path class="st3" d="M224.9,343.7l3.3-0.7l3.1,14.2l-3.3,0.7L224.9,343.7z"/>
	<path class="st3" d="M246.4,350.2l0.8,2.6l-10.8,3.2l-4.2-13.9l10.6-3.2l0.8,2.6l-7.4,2.2l0.9,3l6.5-1.9l0.8,2.5l-6.5,1.9l1,3.2
		L246.4,350.2z"/>
	<path class="st3" d="M246,337.9l6.1-2.6c4.4-1.9,8.5-0.6,10.3,3.5s-0.1,8-4.5,9.9l-6.1,2.6L246,337.9z M256.6,346.1
		c2.7-1.1,3.7-3.5,2.6-6c-1.1-2.6-3.5-3.4-6.2-2.2l-2.8,1.2l3.6,8.3L256.6,346.1z"/>
</g>
<g>
	<g>
		<path class="st3" d="M84.2,145.3h5.2v22.4h-5.2V145.3z"/>
		<path class="st3" d="M92.9,165.5l1.8-3.9c1.9,1.4,4.7,2.3,7.4,2.3c3.1,0,4.3-1,4.3-2.4c0-4.2-13-1.3-13-9.6c0-3.8,3.1-7,9.4-7
			c2.8,0,5.7,0.7,7.8,2l-1.6,3.9c-2.1-1.2-4.2-1.8-6.2-1.8c-3.1,0-4.3,1.2-4.3,2.6c0,4.1,13,1.3,13,9.5c0,3.7-3.1,6.9-9.5,6.9
			C98.5,168.1,94.9,167,92.9,165.5z"/>
		<path class="st3" d="M113.7,156.5c0-6.7,5.2-11.6,12.3-11.6c7,0,12.3,4.9,12.3,11.6s-5.2,11.6-12.3,11.6
			C118.9,168.1,113.7,163.2,113.7,156.5z M132.9,156.5c0-4.3-3-7.2-7-7.2s-7,2.9-7,7.2s3,7.2,7,7.2S132.9,160.8,132.9,156.5z"/>
		<path class="st3" d="M148.3,140.8h4.4l-10.6,30.1h-4.4L148.3,140.8z"/>
		<path class="st3" d="M154,145.3h5.2v22.4H154V145.3z"/>
		<path class="st3" d="M181.8,163.5v4.2h-17.3v-22.4h16.9v4.2h-11.8v4.9H180v4h-10.4v5.2H181.8z"/>
		<path class="st3" d="M184.5,156.5c0-6.8,5.2-11.6,12.2-11.6c3.9,0,7.1,1.4,9.2,4l-3.3,3.1c-1.5-1.7-3.4-2.6-5.6-2.6
			c-4.2,0-7.2,2.9-7.2,7.2s3,7.2,7.2,7.2c2.2,0,4.1-0.9,5.6-2.7l3.3,3.1c-2.1,2.6-5.3,4-9.2,4C189.7,168.1,184.5,163.3,184.5,156.5z
			"/>
		<path class="st3" d="M233.7,163.5v4.2h-16.9v-3.4l8.6-8.2c2-1.9,2.3-3,2.3-4.1c0-1.8-1.2-2.8-3.6-2.8c-1.9,0-3.6,0.7-4.6,2.2
			l-3.8-2.4c1.7-2.5,4.9-4.2,8.9-4.2c5,0,8.3,2.6,8.3,6.6c0,2.2-0.6,4.2-3.7,7.1l-5.2,4.9H233.7z"/>
		<path class="st3" d="M235.8,156.5c0-7.4,4.1-11.6,9.6-11.6c5.5,0,9.6,4.2,9.6,11.6s-4.1,11.6-9.6,11.6
			C239.9,168.1,235.8,163.9,235.8,156.5z M249.8,156.5c0-5.1-1.8-7.2-4.4-7.2c-2.6,0-4.4,2.1-4.4,7.2c0,5.1,1.8,7.2,4.4,7.2
			C248,163.7,249.8,161.6,249.8,156.5z"/>
		<path class="st3" d="M257.5,156.5c0-7.4,4.1-11.6,9.6-11.6c5.5,0,9.6,4.2,9.6,11.6s-4.1,11.6-9.6,11.6
			C261.6,168.1,257.5,163.9,257.5,156.5z M271.5,156.5c0-5.1-1.8-7.2-4.4-7.2c-2.6,0-4.4,2.1-4.4,7.2c0,5.1,1.8,7.2,4.4,7.2
			C269.7,163.7,271.5,161.6,271.5,156.5z"/>
		<path class="st3" d="M279.3,156.5c0-7.4,4.1-11.6,9.6-11.6c5.5,0,9.6,4.2,9.6,11.6s-4.1,11.6-9.6,11.6
			C283.4,168.1,279.3,163.9,279.3,156.5z M293.3,156.5c0-5.1-1.8-7.2-4.4-7.2c-2.6,0-4.4,2.1-4.4,7.2c0,5.1,1.8,7.2,4.4,7.2
			C291.5,163.7,293.3,161.6,293.3,156.5z"/>
		<path class="st3" d="M301,156.5c0-7.4,4.1-11.6,9.6-11.6c5.5,0,9.6,4.2,9.6,11.6s-4.1,11.6-9.6,11.6
			C305.1,168.1,301,163.9,301,156.5z M315,156.5c0-5.1-1.8-7.2-4.4-7.2c-2.6,0-4.4,2.1-4.4,7.2c0,5.1,1.8,7.2,4.4,7.2
			C313.2,163.7,315,161.6,315,156.5z"/>
	</g>
</g>
</svg>
