<svg xmlns="http://www.w3.org/2000/svg" viewBox="0 0 777 372"><g fill="none" stroke-width="2"><path stroke="#949494" d="M170.06 90.94c-13.54-1.78-19.5-17.27-10.42-27.59 7.36-8.39 20.22-6.35 27.46 1.1q.42.43.86.01l5.69-5.38q.41-.39.01-.8-7.75-7.95-17.9-9.02c-16.42-1.73-31.26 10.89-29.27 27.99 2.82 24.15 31.27 29.4 46.92 13.77q.38-.37.01-.76l-5.43-5.73q-.45-.46-.89.01-7.21 7.69-17.04 6.4M404.51 49.27c-13.97-1.66-28.3 8.35-29.03 23.22-1.32 27.06 29.31 35.67 46.94 18.56q.4-.39.01-.8l-5.29-5.56q-.38-.4-.81-.04-4.07 3.37-5.38 4.06c-10.54 5.53-23.97 1.22-26.36-11.27-2.93-15.3 13.35-23.29 26-17.29q2.04.97 5.79 4.31.4.36.78-.02l5.32-5.25a.76.75 45.8 0 0 .01-1.06q-7.29-7.59-17.98-8.86M578.51 74.55a25.52 25.52 0 0 0-25.52-25.52 25.52 25.52 0 0 0-25.52 25.52 25.52 25.52 0 0 0 25.52 25.52 25.52 25.52 0 0 0 25.52-25.52M212.45 90a.45.45 0 0 1-.45-.45v-12.1a.45.45 0 0 1 .45-.45h16.6a.45.45 0 0 0 .45-.45v-8.1a.45.45 0 0 0-.45-.45h-16.6a.45.45 0 0 1-.45-.45v-8.1a.45.45 0 0 1 .45-.45h16.66a.45.45 0 0 0 .45-.45l-.05-8.1a.45.45 0 0 0-.45-.45h-25.87a.45.45 0 0 0-.45.45l.11 48.1a.45.45 0 0 0 .45.45h25.81a.45.45 0 0 0 .45-.45l-.05-8.1a.45.45 0 0 0-.45-.45h-16.61M247.52 78.27a.5.5 0 0 1 .94-.24l11.08 20.52a.87.85-13.7 0 0 .76.45l8.86-.01a.55.55 0 0 0 .48-.81l-11.25-20.57q-.24-.45.2-.7c4.4-2.49 7.87-4.26 8.65-9.84 2.57-18.42-15.02-17.69-28.2-16.89q-.54.04-.54.58v47.61q0 .63.63.63h7.74q.62 0 .62-.62l.03-20.11M281.42 59a.33.33 0 0 1 .33.33v39.34a.33.33 0 0 0 .33.33h8.59a.33.33 0 0 0 .33-.33V59.33a.33.33 0 0 1 .33-.33h8.32a.33.33 0 0 0 .33-.33l.05-8.34a.33.33 0 0 0-.33-.33h-26.65a.33.33 0 0 0-.33.33l.1 8.34a.33.33 0 0 0 .33.33h8.27M315.25 50.31a.31.31 0 0 0-.31-.31h-8.62a.31.31 0 0 0-.31.31v48.38a.31.31 0 0 0 .31.31h8.62a.31.31 0 0 0 .31-.31V50.31M335.46 68a.46.46 0 0 1-.46-.46v-8.08a.46.46 0 0 1 .46-.46h14.33a.46.46 0 0 0 .46-.46v-8.08a.46.46 0 0 0-.46-.46h-23.33a.46.46 0 0 0-.46.46v48.08a.46.46 0 0 0 .46.46h8.08a.46.46 0 0 0 .46-.46V77.46a.46.46 0 0 1 .46-.46h14.33a.46.46 0 0 0 .46-.46v-8.08a.46.46 0 0 0-.46-.46h-14.33M367.26 50.39a.38.38 0 0 0-.38-.38h-8.5a.38.38 0 0 0-.38.38v48.22a.38.38 0 0 0 .38.38h8.5a.38.38 0 0 0 .38-.38V50.39M447.14 49.98a.53.53 0 0 0-.5.34l-18.61 47.95a.53.53 0 0 0 .49.72l8.6.01a.53.53 0 0 0 .49-.34l3.62-9.32a.53.53 0 0 1 .49-.34h19.7a.53.53 0 0 1 .5.34l3.56 9.35a.53.53 0 0 0 .5.35l8.53-.11a.53.53 0 0 0 .48-.72l-18.56-47.82a.53.53 0 0 0-.49-.34l-8.8-.07M495 59.58a.58.58 0 0 1 .58-.58h7.84a.58.58 0 0 0 .58-.58v-7.84a.58.58 0 0 0-.58-.58h-26.09a.58.58 0 0 0-.58.58v7.84a.58.58 0 0 0 .58.58h7.84a.58.58 0 0 1 .58.58v38.83a.58.58 0 0 0 .58.58l8.09.01a.58.58 0 0 0 .58-.58V59.58M519.26 50.39a.38.38 0 0 0-.38-.38h-8.5a.38.38 0 0 0-.38.38v48.22a.38.38 0 0 0 .38.38h8.5a.38.38 0 0 0 .38-.38V50.39M618 81.43a.32.32 0 0 1-.59.17l-20.79-31.46a.32.32 0 0 0-.26-.14h-8.29a.32.32 0 0 0-.32.32v48.35a.32.32 0 0 0 .32.32l8.61.01a.32.32 0 0 0 .32-.32v-31.1a.32.32 0 0 1 .59-.17l20.79 31.45a.32.32 0 0 0 .26.14h8.29a.32.32 0 0 0 .32-.32V50.32a.32.32 0 0 0-.32-.32h-8.61a.32.32 0 0 0-.32.32v31.11" vector-effect="non-scaling-stroke"/><path stroke="gray" d="M337.75 120.97a.47.47 0 0 1 .47-.47h2.16a.47.47 0 0 0 .46-.42l.2-1.9a.47.47 0 0 0-.48-.52l-7.86.26a.47.47 0 0 0-.45.47v1.64a.47.47 0 0 0 .47.47h2.31a.47.47 0 0 1 .47.47v9.47a.47.47 0 0 0 .42.46l1.31.14a.47.47 0 0 0 .52-.47v-9.6M347.85 124.77c-.67-2.21-.99-8.32-5.16-6.87q-.4.14-.4.56l-.13 11.99q0 .55.54.55h1.17q.63 0 .63-.62v-8.39a.25.25 0 0 1 .49-.06l2.04 8.07a1.05 1.05 0 0 0 2.03 0l1.87-7.34a.45.45 0 0 1 .88.13l-.37 7.29a.64.64 0 0 0 .64.67h1.42q.5 0 .5-.5v-11.47q0-.45-.4-.65c-4.31-2.16-4.38 4.34-5.33 6.66q-.24.57-.42-.02" vector-effect="non-scaling-stroke"/><path stroke="#d2bfbb" d="m225.18 147.99 6.36 2.02q.5.16.94-.13c9.69-6.46 21.93-11.87 33.76-12.23q2.35-.07.13-.82-18.66-6.29-39.19-5.24" vector-effect="non-scaling-stroke"/><path stroke="#ccaba6" d="M227.18 131.59q-31.87 1.69-55.26 23.3-1.74 1.61.46.74c16.16-6.41 35.21-10.57 52.8-7.64" vector-effect="non-scaling-stroke"/><path stroke="#9f6b62" d="M227.18 131.59c-.49 5.29-.16 11.42-2 16.4" vector-effect="non-scaling-stroke"/><path stroke="#d2bfbb" d="M335.62 185.68q-15.85 21.16-38.85 32.35-.42.21.05.22 1.41.05 3.49-.16 25.05-2.56 47.07-12.71" vector-effect="non-scaling-stroke"/><path stroke="#ccaba6" d="M347.38 205.38q19.03-8.71 33.52-23.01a1.2 1.2 0 0 0 .28-1.31c-4.95-12.49-13.13-28.28-22.76-37.78a.61.61 0 0 0-1.01.24q-7.53 23.23-21.79 42.16" vector-effect="non-scaling-stroke"/><path stroke="#9f6b62" d="M347.38 205.38c-1.78-.97-1.67-4.32-2.59-6.1q-3.77-7.36-9.17-13.6" vector-effect="non-scaling-stroke"/><path stroke="#d3c6c2" d="M244.12 213.96q7.99 3.25 17.62 3.83c22.1 1.34 53.16-8.71 60.27-32.55 3.86-12.94-2.22-25.07-13.5-32.06" vector-effect="non-scaling-stroke"/><path stroke="#d0b6b1" d="M308.51 153.18c-24.68-15.58-70.56-8.66-84.4 19.19-9.21 18.54 2.27 35 20.01 41.59" vector-effect="non-scaling-stroke"/><path stroke="#a47d74" d="M308.51 153.18q-.16 2 .43 2a.26.26 0 0 1 .14.48q-5.74 3.86-10.25 7.46c-3.5 2.79-8.88 8.85-13.86 12.81-6.24 4.95-11.83 10.49-18.24 15.29-2.05 1.52-3.22 3.38-4.97 5.22-4.75 5.01-8.65 9.5-14.69 13.14q-1.61.97-2.95 4.38" vector-effect="non-scaling-stroke"/><path stroke="#ccaba6" d="M173.76 167.6c-27.25 13.37-32.96 37.81-28.22 65.59a.31.31 0 0 0 .57.1q15.19-26.84 39.11-47.75" vector-effect="non-scaling-stroke"/><path stroke="#d3c6c2" d="M185.22 185.54q17.78-15.43 38.82-26.53 2.06-1.09-.27-1.02c-17.96.53-33.56 2.04-50.01 9.61" vector-effect="non-scaling-stroke"/><path stroke="#a07169" d="M185.22 185.54q-2.86-2.31-3.82-3.71c-2.6-3.81-8.3-9.66-7.64-14.23" vector-effect="non-scaling-stroke"/><path stroke="#ccaba6" d="M152.37 243.34c-8.29 40.42 35.2 73.63 65.22 91.06q.14.08.05-.05-23.01-35.86-24.14-76.37" vector-effect="non-scaling-stroke"/><path stroke="#d2bfbb" d="M193.5 257.98c-.37-27.2 6.8-53.06 19.25-77.04a.29.28-89.5 0 0-.38-.39c-25.6 13.11-52.39 33.54-60 62.79" vector-effect="non-scaling-stroke"/><path stroke="#9f6b62" d="m193.5 257.98-.58-1.23a.2.19-53.9 0 0-.37.06l-.04.27q-.07.53-.6.54c-3.71.09-5.95-2.07-8.71-2.98-8.01-2.64-15.63-6.43-23.64-8.86q-3.63-1.1-7.19-2.44" vector-effect="non-scaling-stroke"/><path stroke="#d0b6b1" d="M213.04 287.32c3.72 15.74 11.01 30.29 23.45 40.74" vector-effect="non-scaling-stroke"/><path stroke="#ccaba6" d="M236.49 328.06c31.12 23.7 78.78 7.43 109.81-7.89q.47-.23-.03-.39-33-10.88-62.02-30.39" vector-effect="non-scaling-stroke"/><path stroke="#d0b6b1" d="M284.25 289.39q-18.89-12.62-34.51-29.31" vector-effect="non-scaling-stroke"/><path stroke="#d2bfbb" d="M249.74 260.08q-25.57-27.09-36.08-63.11a.18.17-47.9 0 0-.34.02q-5.55 29.77-4.43 60.19.54 14.86 4.15 30.14" vector-effect="non-scaling-stroke"/><path stroke="#a3766d" d="M249.74 260.08c-2.09 1.79-2.78 3.77-5.02 5.51-6.84 5.31-14.15 10.01-20.58 15.81q-4.58 4.12-11.1 5.92" vector-effect="non-scaling-stroke"/><path stroke="#9d6258" d="M284.25 289.39q-1.89.91-2.69 3.46a1.31 1.3 84.7 0 1-.62.75c-7.42 3.97-14.31 10.9-20.84 16.28q-.11.1-.27.11l-.14.02q-.16.02-.29.12-4.65 3.6-9.36 7.11c-4.14 3.08-8.75 7.5-13.55 10.82" vector-effect="non-scaling-stroke"/><path stroke="gray" d="M624.17 223.3a11.85 10.64 90 0 0 10.64-11.85 11.85 10.64 90 0 0-10.64-11.85 11.85 10.64 90 0 0-10.64 11.85 11.85 10.64 90 0 0 10.64 11.85" vector-effect="non-scaling-stroke"/><path stroke="#d2bfbb" d="M343.41 218.49q-36.3 8.6-74.25 7.97a.34.34 0 0 0-.14.65c22.6 9.13 48.05 12.57 72.82 13.39" vector-effect="non-scaling-stroke"/><path stroke="#ccaba6" d="M341.84 240.5q22.09.94 46.06-1.22.46-.04.51-.5 1.78-18.65-1-37.13-.2-1.29-1.3-.6-19.31 12.07-42.7 17.44" vector-effect="non-scaling-stroke"/><path stroke="#9f6b62" d="M341.84 240.5q2.41-10.11 1.57-22.01" vector-effect="non-scaling-stroke"/><path stroke="gray" d="M413.75 288.12a.31.31 0 0 0 .31.31l22.13.02a.31.31 0 0 0 .31-.31v-86.36a.31.31 0 0 0-.31-.31l-22.13.04a.31.31 0 0 0-.31.31v86.3M466.41 220.25a.34.34 0 0 1 .34.34v67.31a.34.34 0 0 0 .34.34l22.07.15a.34.34 0 0 0 .34-.34v-67.46a.34.34 0 0 1 .34-.34h23.82a.34.34 0 0 0 .34-.34v-18.07a.34.34 0 0 0-.34-.34h-70.82a.34.34 0 0 0-.34.34v18.07a.34.34 0 0 0 .34.34h23.57M542.75 201.76a.26.26 0 0 0-.26-.26h-22.24a.26.26 0 0 0-.26.26v86.36a.26.26 0 0 0 .26.26h22.24a.26.26 0 0 0 .26-.26v-86.36M578.33 269.5a.33.33 0 0 1-.33-.33v-67.34a.33.33 0 0 0-.33-.33h-22.14a.33.33 0 0 0-.33.33l.07 86.04a.33.33 0 0 0 .33.33l57.32.17a.33.33 0 0 0 .33-.33v-18.21a.33.33 0 0 0-.33-.33h-34.59" vector-effect="non-scaling-stroke"/><path stroke="#ccaba6" d="M310.42 286.02q21.24 12.2 45.54 16.33a2.02 2 24.7 0 0 1.89-.69c11.19-13.35 20-29.93 22.86-47.4a.34.34 0 0 0-.35-.39q-27.11.63-54.08-2.26" vector-effect="non-scaling-stroke"/><path stroke="#d2bfbb" d="M326.28 251.61c-28.03-2.94-58.04-9.4-82.42-23.64q-2.38-1.39-.6.72c19.17 22.66 41.66 43.17 67.16 57.33" vector-effect="non-scaling-stroke"/><path stroke="#9f6b62" d="m326.28 251.61-.72.22a.06.06 0 0 0 0 .11l.38.12a.07.07 0 0 1-.01.14l-.45.06q-.29.04-.3.33-.11 2.92-2.01 6.08-2.94 4.88-5.79 11.73c-1.92 4.64-3.01 10.57-6.96 15.62" vector-effect="non-scaling-stroke"/><path stroke="#949494" d="M569.44 74.53a16.47 16.47 0 0 0-16.47-16.47 16.47 16.47 0 0 0-16.47 16.47A16.47 16.47 0 0 0 552.97 91a16.47 16.47 0 0 0 16.47-16.47M247.75 59.34v9.34a.29.29 0 0 0 .29.29h4.92a5.55 4.28 0 0 0 5.55-4.28v-1.36a5.55 4.28 0 0 0-5.55-4.28h-4.92a.29.29 0 0 0-.29.29M445.1 79.59a.31.31 0 0 0 .29.42l12.42-.02a.31.31 0 0 0 .29-.43l-6.24-15.88a.31.31 0 0 0-.58 0l-6.18 15.91" vector-effect="non-scaling-stroke"/><path stroke="gray" d="M624.298 221.379a9.92 8.93 89.2 0 0 8.791-10.044 9.92 8.93 89.2 0 0-9.068-9.794 9.92 8.93 89.2 0 0-8.79 10.044 9.92 8.93 89.2 0 0 9.067 9.794" vector-effect="non-scaling-stroke"/><path stroke="gray" d="M626.62 212.01c4.03-.63 4.29-6.42.14-7.21q-2.97-.57-6.01-.21a.75.74-3.5 0 0-.66.74l-.07 12.32q0 .61.6.6h.54q.59 0 .59-.59v-4.21a1.57 1.57 0 0 1 3-.66q1.22 2.63 3 4.96.65.85 1.4.42a.49.48 59.2 0 0 .17-.69l-3.03-4.73q-.39-.62.33-.74" vector-effect="non-scaling-stroke"/><path stroke="gray" d="M627.636 207.443a1.23 1.23 0 0 0-1.25-1.21l-3.519.055a1.23 1.23 0 0 0-1.21 1.25l.027 1.739a1.23 1.23 0 0 0 1.25 1.21l3.519-.055a1.23 1.23 0 0 0 1.21-1.25l-.027-1.739" vector-effect="non-scaling-stroke"/></g><path fill="#fff" d="M0 0h777v372H0V0Zm170.06 90.94c-13.54-1.78-19.5-17.27-10.42-27.59 7.36-8.39 20.22-6.35 27.46 1.1q.42.43.86.01l5.69-5.38q.41-.39.01-.8-7.75-7.95-17.9-9.02c-16.42-1.73-31.26 10.89-29.27 27.99 2.82 24.15 31.27 29.4 46.92 13.77q.38-.37.01-.76l-5.43-5.73q-.45-.46-.89.01-7.21 7.69-17.04 6.4Zm234.45-41.67c-13.97-1.66-28.3 8.35-29.03 23.22-1.32 27.06 29.31 35.67 46.94 18.56q.4-.39.01-.8l-5.29-5.56q-.38-.4-.81-.04-4.07 3.37-5.38 4.06c-10.54 5.53-23.97 1.22-26.36-11.27-2.93-15.3 13.35-23.29 26-17.29q2.04.97 5.79 4.31.4.36.78-.02l5.32-5.25a.76.75 45.8 0 0 .01-1.06q-7.29-7.59-17.98-8.86Zm174 25.28a25.52 25.52 0 0 0-25.52-25.52 25.52 25.52 0 0 0-25.52 25.52 25.52 25.52 0 0 0 25.52 25.52 25.52 25.52 0 0 0 25.52-25.52ZM212.45 90a.45.45 0 0 1-.45-.45v-12.1a.45.45 0 0 1 .45-.45h16.6a.45.45 0 0 0 .45-.45v-8.1a.45.45 0 0 0-.45-.45h-16.6a.45.45 0 0 1-.45-.45v-8.1a.45.45 0 0 1 .45-.45h16.66a.45.45 0 0 0 .45-.45l-.05-8.1a.45.45 0 0 0-.45-.45h-25.87a.45.45 0 0 0-.45.45l.11 48.1a.45.45 0 0 0 .45.45h25.81a.45.45 0 0 0 .45-.45l-.05-8.1a.45.45 0 0 0-.45-.45h-16.61Zm35.07-11.73a.5.5 0 0 1 .94-.24l11.08 20.52a.87.85-13.7 0 0 .76.45l8.86-.01a.55.55 0 0 0 .48-.81l-11.25-20.57q-.24-.45.2-.7c4.4-2.49 7.87-4.26 8.65-9.84 2.57-18.42-15.02-17.69-28.2-16.89q-.54.04-.54.58v47.61q0 .63.63.63h7.74q.62 0 .62-.62l.03-20.11ZM281.42 59a.33.33 0 0 1 .33.33v39.34a.33.33 0 0 0 .33.33h8.59a.33.33 0 0 0 .33-.33V59.33a.33.33 0 0 1 .33-.33h8.32a.33.33 0 0 0 .33-.33l.05-8.34a.33.33 0 0 0-.33-.33h-26.65a.33.33 0 0 0-.33.33l.1 8.34a.33.33 0 0 0 .33.33h8.27Zm33.83-8.69a.31.31 0 0 0-.31-.31h-8.62a.31.31 0 0 0-.31.31v48.38a.31.31 0 0 0 .31.31h8.62a.31.31 0 0 0 .31-.31V50.31ZM335.46 68a.46.46 0 0 1-.46-.46v-8.08a.46.46 0 0 1 .46-.46h14.33a.46.46 0 0 0 .46-.46v-8.08a.46.46 0 0 0-.46-.46h-23.33a.46.46 0 0 0-.46.46v48.08a.46.46 0 0 0 .46.46h8.08a.46.46 0 0 0 .46-.46V77.46a.46.46 0 0 1 .46-.46h14.33a.46.46 0 0 0 .46-.46v-8.08a.46.46 0 0 0-.46-.46h-14.33Zm31.8-17.61a.38.38 0 0 0-.38-.38h-8.5a.38.38 0 0 0-.38.38v48.22a.38.38 0 0 0 .38.38h8.5a.38.38 0 0 0 .38-.38V50.39Zm79.88-.41a.53.53 0 0 0-.5.34l-18.61 47.95a.53.53 0 0 0 .49.72l8.6.01a.53.53 0 0 0 .49-.34l3.62-9.32a.53.53 0 0 1 .49-.34h19.7a.53.53 0 0 1 .5.34l3.56 9.35a.53.53 0 0 0 .5.35l8.53-.11a.53.53 0 0 0 .48-.72l-18.56-47.82a.53.53 0 0 0-.49-.34l-8.8-.07Zm47.86 9.6a.58.58 0 0 1 .58-.58h7.84a.58.58 0 0 0 .58-.58v-7.84a.58.58 0 0 0-.58-.58h-26.09a.58.58 0 0 0-.58.58v7.84a.58.58 0 0 0 .58.58h7.84a.58.58 0 0 1 .58.58v38.83a.58.58 0 0 0 .58.58l8.09.01a.58.58 0 0 0 .58-.58V59.58Zm24.26-9.19a.38.38 0 0 0-.38-.38h-8.5a.38.38 0 0 0-.38.38v48.22a.38.38 0 0 0 .38.38h8.5a.38.38 0 0 0 .38-.38V50.39ZM618 81.43a.32.32 0 0 1-.59.17l-20.79-31.46a.32.32 0 0 0-.26-.14h-8.29a.32.32 0 0 0-.32.32v48.35a.32.32 0 0 0 .32.32l8.61.01a.32.32 0 0 0 .32-.32v-31.1a.32.32 0 0 1 .59-.17l20.79 31.45a.32.32 0 0 0 .26.14h8.29a.32.32 0 0 0 .32-.32V50.32a.32.32 0 0 0-.32-.32h-8.61a.32.32 0 0 0-.32.32v31.11Zm-280.25 39.54a.47.47 0 0 1 .47-.47h2.16a.47.47 0 0 0 .46-.42l.2-1.9a.47.47 0 0 0-.48-.52l-7.86.26a.47.47 0 0 0-.45.47v1.64a.47.47 0 0 0 .47.47h2.31a.47.47 0 0 1 .47.47v9.47a.47.47 0 0 0 .42.46l1.31.14a.47.47 0 0 0 .52-.47v-9.6Zm10.1 3.8c-.67-2.21-.99-8.32-5.16-6.87q-.4.14-.4.56l-.13 11.99q0 .55.54.55h1.17q.63 0 .63-.62v-8.39a.25.25 0 0 1 .49-.06l2.04 8.07a1.05 1.05 0 0 0 2.03 0l1.87-7.34a.45.45 0 0 1 .88.13l-.37 7.29a.64.64 0 0 0 .64.67h1.42q.5 0 .5-.5v-11.47q0-.45-.4-.65c-4.31-2.16-4.38 4.34-5.33 6.66q-.24.57-.42-.02Zm-122.67 23.22 6.36 2.02q.5.16.94-.13c9.69-6.46 21.93-11.87 33.76-12.23q2.35-.07.13-.82-18.66-6.29-39.19-5.24-31.87 1.69-55.26 23.3-1.74 1.61.46.74c16.16-6.41 35.21-10.57 52.8-7.64Zm110.44 37.69q-15.85 21.16-38.85 32.35-.42.21.05.22 1.41.05 3.49-.16 25.05-2.56 47.07-12.71 19.03-8.71 33.52-23.01a1.2 1.2 0 0 0 .28-1.31c-4.95-12.49-13.13-28.28-22.76-37.78a.61.61 0 0 0-1.01.24q-7.53 23.23-21.79 42.16Zm-91.5 28.28q7.99 3.25 17.62 3.83c22.1 1.34 53.16-8.71 60.27-32.55 3.86-12.94-2.22-25.07-13.5-32.06-24.68-15.58-70.56-8.66-84.4 19.19-9.21 18.54 2.27 35 20.01 41.59Zm-70.36-46.36c-27.25 13.37-32.96 37.81-28.22 65.59a.31.31 0 0 0 .57.1q15.19-26.84 39.11-47.75 17.78-15.43 38.82-26.53 2.06-1.09-.27-1.02c-17.96.53-33.56 2.04-50.01 9.61Zm-21.39 75.74c-8.29 40.42 35.2 73.63 65.22 91.06q.14.08.05-.05-23.01-35.86-24.14-76.37c-.37-27.2 6.8-53.06 19.25-77.04a.29.28-89.5 0 0-.38-.39c-25.6 13.11-52.39 33.54-60 62.79Zm60.67 43.98c3.72 15.74 11.01 30.29 23.45 40.74 31.12 23.7 78.78 7.43 109.81-7.89q.47-.23-.03-.39-33-10.88-62.02-30.39-18.89-12.62-34.51-29.31-25.57-27.09-36.08-63.11a.18.17-47.9 0 0-.34.02q-5.55 29.77-4.43 60.19.54 14.86 4.15 30.14Zm411.13-64.02a11.85 10.64 90 0 0 10.64-11.85 11.85 10.64 90 0 0-10.64-11.85 11.85 10.64 90 0 0-10.64 11.85 11.85 10.64 90 0 0 10.64 11.85Zm-280.76-4.81q-36.3 8.6-74.25 7.97a.34.34 0 0 0-.14.65c22.6 9.13 48.05 12.57 72.82 13.39q22.09.94 46.06-1.22.46-.04.51-.5 1.78-18.65-1-37.13-.2-1.29-1.3-.6-19.31 12.07-42.7 17.44Zm70.34 69.63a.31.31 0 0 0 .31.31l22.13.02a.31.31 0 0 0 .31-.31v-86.36a.31.31 0 0 0-.31-.31l-22.13.04a.31.31 0 0 0-.31.31v86.3Zm52.66-67.87a.34.34 0 0 1 .34.34v67.31a.34.34 0 0 0 .34.34l22.07.15a.34.34 0 0 0 .34-.34v-67.46a.34.34 0 0 1 .34-.34h23.82a.34.34 0 0 0 .34-.34v-18.07a.34.34 0 0 0-.34-.34h-70.82a.34.34 0 0 0-.34.34v18.07a.34.34 0 0 0 .34.34h23.57Zm76.34-18.49a.26.26 0 0 0-.26-.26h-22.24a.26.26 0 0 0-.26.26v86.36a.26.26 0 0 0 .26.26h22.24a.26.26 0 0 0 .26-.26v-86.36Zm35.58 67.74a.33.33 0 0 1-.33-.33v-67.34a.33.33 0 0 0-.33-.33h-22.14a.33.33 0 0 0-.33.33l.07 86.04a.33.33 0 0 0 .33.33l57.32.17a.33.33 0 0 0 .33-.33v-18.21a.33.33 0 0 0-.33-.33h-34.59Zm-267.91 16.52q21.24 12.2 45.54 16.33a2.02 2 24.7 0 0 1.89-.69c11.19-13.35 20-29.93 22.86-47.4a.34.34 0 0 0-.35-.39q-27.11.63-54.08-2.26c-28.03-2.94-58.04-9.4-82.42-23.64q-2.38-1.39-.6.72c19.17 22.66 41.66 43.17 67.16 57.33Z"/><path fill="#292929" d="M170.06 90.94q9.83 1.29 17.04-6.4.44-.47.89-.01l5.43 5.73q.37.39-.01.76c-15.65 15.63-44.1 10.38-46.92-13.77-1.99-17.1 12.85-29.72 29.27-27.99q10.15 1.07 17.9 9.02.4.41-.01.8l-5.69 5.38q-.44.42-.86-.01c-7.24-7.45-20.1-9.49-27.46-1.1-9.08 10.32-3.12 25.81 10.42 27.59ZM375.48 72.49c.73-14.87 15.06-24.88 29.03-23.22q10.69 1.27 17.98 8.86a.76.75 45.8 0 1-.01 1.06l-5.32 5.25q-.38.38-.78.02-3.75-3.34-5.79-4.31c-12.65-6-28.93 1.99-26 17.29 2.39 12.49 15.82 16.8 26.36 11.27q1.31-.69 5.38-4.06.43-.36.81.04l5.29 5.56q.39.41-.01.8c-17.63 17.11-48.26 8.5-46.94-18.56ZM578.51 74.55a25.52 25.52 0 0 1-25.52 25.52 25.52 25.52 0 0 1-25.52-25.52 25.52 25.52 0 0 1 25.52-25.52 25.52 25.52 0 0 1 25.52 25.52Zm-9.07-.02a16.47 16.47 0 0 0-16.47-16.47 16.47 16.47 0 0 0-16.47 16.47A16.47 16.47 0 0 0 552.97 91a16.47 16.47 0 0 0 16.47-16.47ZM212.45 90h16.61a.45.45 0 0 1 .45.45l.05 8.1a.45.45 0 0 1-.45.45H203.3a.45.45 0 0 1-.45-.45l-.11-48.1a.45.45 0 0 1 .45-.45h25.87a.45.45 0 0 1 .45.45l.05 8.1a.45.45 0 0 1-.45.45h-16.66a.45.45 0 0 0-.45.45v8.1a.45.45 0 0 0 .45.45h16.6a.45.45 0 0 1 .45.45v8.1a.45.45 0 0 1-.45.45h-16.6a.45.45 0 0 0-.45.45v12.1a.45.45 0 0 0 .45.45ZM247.52 78.27l-.03 20.11q0 .62-.62.62h-7.74q-.63 0-.63-.63V50.76q0-.54.54-.58c13.18-.8 30.77-1.53 28.2 16.89-.78 5.58-4.25 7.35-8.65 9.84q-.44.25-.2.7l11.25 20.57a.55.55 0 0 1-.48.81l-8.86.01a.87.85-13.7 0 1-.76-.45l-11.08-20.52a.5.5 0 0 0-.94.24Zm.23-18.93v9.34a.29.29 0 0 0 .29.29h4.92a5.55 4.28 0 0 0 5.55-4.28v-1.36a5.55 4.28 0 0 0-5.55-4.28h-4.92a.29.29 0 0 0-.29.29ZM281.42 59h-8.27a.33.33 0 0 1-.33-.33l-.1-8.34a.33.33 0 0 1 .33-.33h26.65a.33.33 0 0 1 .33.33l-.05 8.34a.33.33 0 0 1-.33.33h-8.32a.33.33 0 0 0-.33.33v39.34a.33.33 0 0 1-.33.33h-8.59a.33.33 0 0 1-.33-.33V59.33a.33.33 0 0 0-.33-.33Z"/><rect width="9.24" height="49" x="306.01" y="50" fill="#292929" rx=".31"/><path fill="#292929" d="M335.46 68h14.33a.46.46 0 0 1 .46.46v8.08a.46.46 0 0 1-.46.46h-14.33a.46.46 0 0 0-.46.46v21.08a.46.46 0 0 1-.46.46h-8.08a.46.46 0 0 1-.46-.46V50.46a.46.46 0 0 1 .46-.46h23.33a.46.46 0 0 1 .46.46v8.08a.46.46 0 0 1-.46.46h-14.33a.46.46 0 0 0-.46.46v8.08a.46.46 0 0 0 .46.46Z"/><rect width="9.26" height="48.98" x="358" y="50.01" fill="#292929" rx=".38"/><path fill="#292929" d="m447.14 49.98 8.8.07a.53.53 0 0 1 .49.34l18.56 47.82a.53.53 0 0 1-.48.72l-8.53.11a.53.53 0 0 1-.5-.35l-3.56-9.35a.53.53 0 0 0-.5-.34h-19.7a.53.53 0 0 0-.49.34l-3.62 9.32a.53.53 0 0 1-.49.34l-8.6-.01a.53.53 0 0 1-.49-.72l18.61-47.95a.53.53 0 0 1 .5-.34Zm-2.04 29.61a.31.31 0 0 0 .29.42l12.42-.02a.31.31 0 0 0 .29-.43l-6.24-15.88a.31.31 0 0 0-.58 0l-6.18 15.91ZM495 59.58v38.84a.58.58 0 0 1-.58.58l-8.09-.01a.58.58 0 0 1-.58-.58V59.58a.58.58 0 0 0-.58-.58h-7.84a.58.58 0 0 1-.58-.58v-7.84a.58.58 0 0 1 .58-.58h26.09a.58.58 0 0 1 .58.58v7.84a.58.58 0 0 1-.58.58h-7.84a.58.58 0 0 0-.58.58Z"/><rect width="9.26" height="48.98" x="510" y="50.01" fill="#292929" rx=".38"/><path fill="#292929" d="M618 81.43V50.32a.32.32 0 0 1 .32-.32h8.61a.32.32 0 0 1 .32.32v48.36a.32.32 0 0 1-.32.32h-8.29a.32.32 0 0 1-.26-.14l-20.79-31.45a.32.32 0 0 0-.59.17v31.1a.32.32 0 0 1-.32.32l-8.61-.01a.32.32 0 0 1-.32-.32V50.32a.32.32 0 0 1 .32-.32h8.29a.32.32 0 0 1 .26.14l20.79 31.46a.32.32 0 0 0 .59-.17Z"/><circle cx="552.97" cy="74.53" r="16.47" fill="#fff"/><path fill="#fff" d="M247.75 59.34a.29.29 0 0 1 .29-.29h4.92a5.55 4.28 0 0 1 5.55 4.28v1.36a5.55 4.28 0 0 1-5.55 4.28h-4.92a.29.29 0 0 1-.29-.29v-9.34ZM445.1 79.59l6.18-15.91a.31.31 0 0 1 .58 0l6.24 15.88a.31.31 0 0 1-.29.43l-12.42.02a.31.31 0 0 1-.29-.42Z"/><path d="M337.75 120.97v9.6a.47.47 0 0 1-.52.47l-1.31-.14a.47.47 0 0 1-.42-.46v-9.47a.47.47 0 0 0-.47-.47h-2.31a.47.47 0 0 1-.47-.47v-1.64a.47.47 0 0 1 .45-.47l7.86-.26a.47.47 0 0 1 .48.52l-.2 1.9a.47.47 0 0 1-.46.42h-2.16a.47.47 0 0 0-.47.47ZM348.27 124.79c.95-2.32 1.02-8.82 5.33-6.66q.4.2.4.65v11.47q0 .5-.5.5h-1.42a.64.64 0 0 1-.64-.67l.37-7.29a.45.45 0 0 0-.88-.13l-1.87 7.34a1.05 1.05 0 0 1-2.03 0l-2.04-8.07a.25.25 0 0 0-.49.06v8.39q0 .62-.63.62h-1.17q-.54 0-.54-.55l.13-11.99q0-.42.4-.56c4.17-1.45 4.49 4.66 5.16 6.87q.18.59.42.02Z"/><path fill="#98564d" d="M227.18 131.59c-.49 5.29-.16 11.42-2 16.4-17.59-2.93-36.64 1.23-52.8 7.64q-2.2.87-.46-.74 23.39-21.61 55.26-23.3Z"/><path fill="#a57f77" d="M227.18 131.59q20.53-1.05 39.19 5.24 2.22.75-.13.82c-11.83.36-24.07 5.77-33.76 12.23q-.44.29-.94.13l-6.36-2.02c1.84-4.98 1.51-11.11 2-16.4Z"/><path fill="#98564d" d="M347.38 205.38c-1.78-.97-1.67-4.32-2.59-6.1q-3.77-7.36-9.17-13.6 14.26-18.93 21.79-42.16a.61.61 0 0 1 1.01-.24c9.63 9.5 17.81 25.29 22.76 37.78a1.2 1.2 0 0 1-.28 1.31q-14.49 14.3-33.52 23.01Z"/><path fill="#a16d63" d="M308.51 153.18q-.16 2 .43 2a.26.26 0 0 1 .14.48q-5.74 3.86-10.25 7.46c-3.5 2.79-8.88 8.85-13.86 12.81-6.24 4.95-11.83 10.49-18.24 15.29-2.05 1.52-3.22 3.38-4.97 5.22-4.75 5.01-8.65 9.5-14.69 13.14q-1.61.97-2.95 4.38c-17.74-6.59-29.22-23.05-20.01-41.59 13.84-27.85 59.72-34.77 84.4-19.19Z"/><path fill="#a78c84" d="M308.51 153.18c11.28 6.99 17.36 19.12 13.5 32.06-7.11 23.84-38.17 33.89-60.27 32.55q-9.63-.58-17.62-3.83 1.34-3.41 2.95-4.38c6.04-3.64 9.94-8.13 14.69-13.14 1.75-1.84 2.92-3.7 4.97-5.22 6.41-4.8 12-10.34 18.24-15.29 4.98-3.96 10.36-10.02 13.86-12.81q4.51-3.6 10.25-7.46a.26.26 0 0 0-.14-.48q-.59 0-.43-2ZM185.22 185.54q-2.86-2.31-3.82-3.71c-2.6-3.81-8.3-9.66-7.64-14.23 16.45-7.57 32.05-9.08 50.01-9.61q2.33-.07.27 1.02-21.04 11.1-38.82 26.53Z"/><path fill="#98564d" d="M173.76 167.6c-.66 4.57 5.04 10.42 7.64 14.23q.96 1.4 3.82 3.71-23.92 20.91-39.11 47.75a.31.31 0 0 1-.57-.1c-4.74-27.78.97-52.22 28.22-65.59Z"/><path fill="#a57f77" d="m193.5 257.98-.58-1.23a.2.19-53.9 0 0-.37.06l-.04.27q-.07.53-.6.54c-3.71.09-5.95-2.07-8.71-2.98-8.01-2.64-15.63-6.43-23.64-8.86q-3.63-1.1-7.19-2.44c7.61-29.25 34.4-49.68 60-62.79a.29.28-89.5 0 1 .38.39c-12.45 23.98-19.62 49.84-19.25 77.04ZM335.62 185.68q5.4 6.24 9.17 13.6c.92 1.78.81 5.13 2.59 6.1q-22.02 10.15-47.07 12.71-2.08.21-3.49.16-.47-.01-.05-.22 23-11.19 38.85-32.35ZM249.74 260.08c-2.09 1.79-2.78 3.77-5.02 5.51-6.84 5.31-14.15 10.01-20.58 15.81q-4.58 4.12-11.1 5.92-3.61-15.28-4.15-30.14-1.12-30.42 4.43-60.19a.18.17-47.9 0 1 .34-.02q10.51 36.02 36.08 63.11Z"/><path d="M624.17 223.3a11.85 10.64 90 0 1-10.64-11.85 11.85 10.64 90 0 1 10.64-11.85 11.85 10.64 90 0 1 10.64 11.85 11.85 10.64 90 0 1-10.64 11.85Zm.129-1.921a9.92 8.93 89.2 0 0 8.79-10.044 9.92 8.93 89.2 0 0-9.068-9.794 9.92 8.93 89.2 0 0-8.79 10.044 9.92 8.93 89.2 0 0 9.067 9.794Z"/><path fill="#98564d" d="M341.84 240.5q2.41-10.11 1.57-22.01 23.39-5.37 42.7-17.44 1.1-.69 1.3.6 2.78 18.48 1 37.13-.05.46-.51.5-23.97 2.16-46.06 1.22Z"/><path d="M413.75 288.12v-86.3a.31.31 0 0 1 .31-.31l22.13-.04a.31.31 0 0 1 .31.31v86.36a.31.31 0 0 1-.31.31l-22.13-.02a.31.31 0 0 1-.31-.31ZM466.41 220.25h-23.57a.34.34 0 0 1-.34-.34v-18.07a.34.34 0 0 1 .34-.34h70.82a.34.34 0 0 1 .34.34v18.07a.34.34 0 0 1-.34.34h-23.82a.34.34 0 0 0-.34.34v67.46a.34.34 0 0 1-.34.34l-22.07-.15a.34.34 0 0 1-.34-.34v-67.31a.34.34 0 0 0-.34-.34Z"/><rect width="22.76" height="86.88" x="519.99" y="201.5" rx=".26"/><path d="M578.33 269.5h34.59a.33.33 0 0 1 .33.33v18.21a.33.33 0 0 1-.33.33l-57.32-.17a.33.33 0 0 1-.33-.33l-.07-86.04a.33.33 0 0 1 .33-.33h22.14a.33.33 0 0 1 .33.33v67.34a.33.33 0 0 0 .33.33Z"/><path fill="#fff" d="M624.298 221.379a9.92 8.93 89.2 0 1-9.067-9.794 9.92 8.93 89.2 0 1 8.79-10.044 9.92 8.93 89.2 0 1 9.068 9.794 9.92 8.93 89.2 0 1-8.79 10.044Zm2.322-9.369c4.03-.63 4.29-6.42.14-7.21q-2.97-.57-6.01-.21a.75.74-3.5 0 0-.66.74l-.07 12.32q0 .61.6.6h.54q.59 0 .59-.59v-4.21a1.57 1.57 0 0 1 3-.66q1.22 2.63 3 4.96.65.85 1.4.42a.49.48 59.2 0 0 .17-.69l-3.03-4.73q-.39-.62.33-.74Z"/><path d="m626.29 212.75 3.03 4.73a.49.48 59.2 0 1-.17.69q-.75.43-1.4-.42-1.78-2.33-3-4.96a1.57 1.57 0 0 0-3 .66v4.21q0 .59-.59.59h-.54q-.6.01-.6-.6l.07-12.32a.75.74-3.5 0 1 .66-.74q3.04-.36 6.01.21c4.15.79 3.89 6.58-.14 7.21q-.72.12-.33.74Zm1.346-5.307a1.23 1.23 0 0 0-1.25-1.21l-3.519.055a1.23 1.23 0 0 0-1.21 1.25l.027 1.739a1.23 1.23 0 0 0 1.25 1.21l3.519-.055a1.23 1.23 0 0 0 1.21-1.25l-.027-1.739Z"/><rect width="5.98" height="4.2" x="-2.99" y="-2.1" fill="#fff" rx="1.23" transform="rotate(-.9 13576.667 -39662.093)"/><path fill="#a57f77" d="M343.41 218.49q.84 11.9-1.57 22.01c-24.77-.82-50.22-4.26-72.82-13.39a.34.34 0 0 1 .14-.65q37.95.63 74.25-7.97ZM326.28 251.61l-.72.22a.06.06 0 0 0 0 .11l.38.12a.07.07 0 0 1-.01.14l-.45.06q-.29.04-.3.33-.11 2.92-2.01 6.08-2.94 4.88-5.79 11.73c-1.92 4.64-3.01 10.57-6.96 15.62-25.5-14.16-47.99-34.67-67.16-57.33q-1.78-2.11.6-.72c24.38 14.24 54.39 20.7 82.42 23.64Z"/><path fill="#98564d" d="M152.37 243.34q3.56 1.34 7.19 2.44c8.01 2.43 15.63 6.22 23.64 8.86 2.76.91 5 3.07 8.71 2.98q.53-.01.6-.54l.04-.27a.2.19-53.9 0 1 .37-.06l.58 1.23q1.13 40.51 24.14 76.37.09.13-.05.05c-30.02-17.43-73.51-50.64-65.22-91.06ZM326.28 251.61q26.97 2.89 54.08 2.26a.34.34 0 0 1 .35.39c-2.86 17.47-11.67 34.05-22.86 47.4a2.02 2 24.7 0 1-1.89.69q-24.3-4.13-45.54-16.33c3.95-5.05 5.04-10.98 6.96-15.62q2.85-6.85 5.79-11.73 1.9-3.16 2.01-6.08.01-.29.3-.33l.45-.06a.07.07 0 0 0 .01-.14l-.38-.12a.06.06 0 0 1 0-.11l.72-.22Z"/><path fill="#a16d63" d="M249.74 260.08q15.62 16.69 34.51 29.31-1.89.91-2.69 3.46a1.31 1.3 84.7 0 1-.62.75c-7.42 3.97-14.31 10.9-20.84 16.28q-.11.1-.27.11l-.14.02q-.16.02-.29.12-4.65 3.6-9.36 7.11c-4.14 3.08-8.75 7.5-13.55 10.82-12.44-10.45-19.73-25-23.45-40.74q6.52-1.8 11.1-5.92c6.43-5.8 13.74-10.5 20.58-15.81 2.24-1.74 2.93-3.72 5.02-5.51Z"/><path fill="#98564d" d="M284.25 289.39q29.02 19.51 62.02 30.39.5.16.03.39c-31.03 15.32-78.69 31.59-109.81 7.89 4.8-3.32 9.41-7.74 13.55-10.82q4.71-3.51 9.36-7.11.13-.1.29-.12l.14-.02q.16-.01.27-.11c6.53-5.38 13.42-12.31 20.84-16.28a1.31 1.3 84.7 0 0 .62-.75q.8-2.55 2.69-3.46Z"/></svg>